<?xml version="1.0" encoding="utf-8"?>
<!-- Generator: Adobe Illustrator 22.1.0, SVG Export Plug-In . SVG Version: 6.00 Build 0)  -->
<svg version="1.1" id="Layer_1" xmlns="http://www.w3.org/2000/svg" xmlns:xlink="http://www.w3.org/1999/xlink" x="0px" y="0px"
	 viewBox="0 0 100 100" style="enable-background:new 0 0 100 100;" xml:space="preserve">
<style type="text/css">
	.st0{fill:none;stroke:#F7CA0D;stroke-width:3;stroke-linecap:round;stroke-miterlimit:10;}
	.st1{fill:#D63132;}
</style>
<path class="st0" d="M45.1,15.7c0.8-0.6,1.7-1.2,2.6-1.7c9-5.2,20.7-4.4,29.1,2.6c9.8,8.2,11.9,22.1,5.5,32.7
	c-0.7,1.2-1.5,2.3-2.4,3.4"/>
<line class="st0" x1="61.2" y1="4.9" x2="60.5" y2="16.5"/>
<line class="st0" x1="89.9" y1="40.2" x2="77.5" y2="38.5"/>
<path class="st1" d="M74.1,86.7c11-2.4,21.2-17.3,18.9-20.4c-2.4-3.1-22.1-8.2-34.6-14.9C38,40.4,4.2,45.1,5.8,72.6
	c1.6,27.5,50.3,29.8,69.1,16.5c-9.8,1.5-24.6-1.3-25.8-1.6C50.2,87.7,63.6,89,74.1,86.7z M36.8,75.1c-10.6-1.6-19.2-22-6.9-16
	c12.5,6,21.3,7.2,21.3,7.2S47.5,76.7,36.8,75.1z"/>
<path class="st1" d="M41.9,20.8c0,2.2-1.8,3.9-3.9,3.9c-1.5,0-2.9-0.9-3.5-2.2C27,27.7,24.4,40.2,23,44.3
	C13.6,43.5,4.2,57.7,4.2,57.7C3.7,25.2,17,12.8,24.7,9.9c-0.1-0.3-0.1-0.6-0.1-0.9c0-2.2,1.8-3.9,3.9-3.9s3.9,1.8,3.9,3.9
	s-1.8,3.9-3.9,3.9c-1.1,0-2.1-0.5-2.8-1.2C11.5,17.8,13,42.7,14.4,42c2.4-9.8,13.4-19.5,19.7-21.6c0.2-2,1.9-3.6,3.9-3.6
	C40.1,16.8,41.9,18.6,41.9,20.8z"/>
</svg>
