<?xml version="1.0" encoding="utf-8"?>
<!-- Generator: Adobe Illustrator 22.1.0, SVG Export Plug-In . SVG Version: 6.00 Build 0)  -->
<svg version="1.1" id="Layer_1" xmlns="http://www.w3.org/2000/svg" xmlns:xlink="http://www.w3.org/1999/xlink" x="0px" y="0px"
	 viewBox="0 0 338 190.1" style="enable-background:new 0 0 338 190.1;" xml:space="preserve">
<style type="text/css">
	.st0{fill:none;stroke:#F7CA0D;stroke-width:3;stroke-miterlimit:10;}
	.st1{fill:none;stroke:#F7CA0D;stroke-width:3;stroke-linecap:round;stroke-miterlimit:10;}
	.st2{fill:#1D232C;}
	.st3{fill:#D63132;}
</style>
<path class="st0" d="M151.9,47.7c1.4-2.2,2.9-4.3,4.5-6.3c16.3-19.9,43.8-28.5,69.6-19.6c29.7,10.3,46.9,40.5,41.6,70.5
	c-0.6,3.3-1.4,6.6-2.6,9.9"/>
<line class="st1" x1="179.5" y1="8.6" x2="186.5" y2="32.6"/>
<line class="st1" x1="284.5" y1="72.6" x2="257.5" y2="77.6"/>
<g>
	<path class="st2" d="M62.7,104.2C50,104.2,40.2,97.6,40,86h13.2c0.4,4.9,3.6,8.2,9.3,8.2c5.8,0,9.2-3.1,9.2-7.5
		c0-13.3-31.6-5.3-31.5-27.5c0-11.1,9-17.7,21.6-17.7c12.6,0,21.2,6.4,21.9,17.5H70.2c-0.3-4-3.5-7.2-8.8-7.3
		c-4.8-0.2-8.4,2.2-8.4,7.2c0,12.3,31.4,5.4,31.4,27C84.4,95.5,76.7,104.2,62.7,104.2z"/>
	<path class="st2" d="M123.2,41.6c13.6,0,24.7,7.3,28.8,19.8h-14.1c-2.9-5.9-8.2-8.8-14.7-8.8c-10.7,0-18.3,7.8-18.3,20.3
		c0,12.4,7.6,20.3,18.3,20.3c6.6,0,11.9-2.9,14.7-8.9h14.1c-4.1,12.6-15.2,19.8-28.8,19.8c-17.6,0-31.1-12.9-31.1-31.2
		C92.1,54.6,105.5,41.6,123.2,41.6z"/>
	<path class="st2" d="M63.7,151.9H53.4v23.5H41.1v-61.3h22.6c14.7,0,22.1,8.3,22.1,19C85.8,142.4,79.5,151.9,63.7,151.9z M63.1,142
		c6.9,0,10-3.4,10-8.9c0-5.6-3.1-9-10-9h-9.7V142H63.1z"/>
	<path class="st2" d="M122.6,113.4c13.6,0,24.7,7.3,28.8,19.8h-14.1c-2.9-5.9-8.2-8.8-14.7-8.8c-10.7,0-18.3,7.8-18.3,20.3
		c0,12.4,7.6,20.3,18.3,20.3c6.6,0,11.9-2.9,14.7-8.9h14.1c-4.1,12.6-15.2,19.8-28.8,19.8c-17.6,0-31.1-12.9-31.1-31.2
		C91.5,126.4,105,113.4,122.6,113.4z"/>
</g>
<path class="st3" d="M271.7,160.4c17.4-3.7,33.4-27.3,29.7-32.2c-3.7-5-34.8-12.9-54.5-23.5c-32.2-17.3-85.5-9.9-83,33.5
	c2.5,43.3,79.3,47.1,109,26c-15.4,2.4-38.8-2.1-40.7-2.5C234.1,161.8,255.2,163.9,271.7,160.4z M213,142
	c-16.8-2.6-30.3-34.6-10.9-25.3c19.8,9.5,33.7,11.3,33.7,11.3S229.8,144.5,213,142z"/>
<path class="st3" d="M221,56.3c0,3.4-2.8,6.2-6.2,6.2c-2.4,0-4.5-1.4-5.6-3.5c-11.7,8.2-15.8,27.9-18,34.4
	c-14.9-1.2-29.7,21.1-29.7,21.1c-0.9-51.2,20.1-70.8,32.4-75.4c-0.1-0.5-0.2-0.9-0.2-1.4c0-3.4,2.8-6.2,6.2-6.2s6.2,2.8,6.2,6.2
	s-2.8,6.2-6.2,6.2c-1.7,0-3.3-0.7-4.4-1.9c-22.4,9.5-20.1,48.8-17.8,47.7c3.9-15.4,21.2-30.8,31-34c0.3-3.2,2.9-5.6,6.2-5.6
	C218.2,50.1,221,52.9,221,56.3z"/>
<path class="st0" d="M268.1,92.8"/>
</svg>
